<svg viewBox="0 0 1075 400" xmlns="http://www.w3.org/2000/svg"><g><g><g><g><g><line x1="50" y1="378" x2="45" y2="378" style="visibility: inherit;" fill="rgb(0, 0, 0)" stroke="rgb(204, 204, 204)" stroke-width="1px"></line><line x1="50" y1="343.6363636363636" x2="45" y2="343.6363636363636" style="visibility: inherit;" fill="rgb(0, 0, 0)" stroke="rgb(204, 204, 204)" stroke-width="1px"></line><line x1="50" y1="309.27272727272725" x2="45" y2="309.27272727272725" style="visibility: inherit;" fill="rgb(0, 0, 0)" stroke="rgb(204, 204, 204)" stroke-width="1px"></line><line x1="50" y1="274.90909090909093" x2="45" y2="274.90909090909093" style="visibility: inherit;" fill="rgb(0, 0, 0)" stroke="rgb(204, 204, 204)" stroke-width="1px"></line><line x1="50" y1="240.54545454545453" x2="45" y2="240.54545454545453" style="visibility: inherit;" fill="rgb(0, 0, 0)" stroke="rgb(204, 204, 204)" stroke-width="1px"></line><line x1="50" y1="206.18181818181816" x2="45" y2="206.18181818181816" style="visibility: inherit;" fill="rgb(0, 0, 0)" stroke="rgb(204, 204, 204)" stroke-width="1px"></line><line x1="50" y1="171.81818181818184" x2="45" y2="171.81818181818184" style="visibility: inherit;" fill="rgb(0, 0, 0)" stroke="rgb(204, 204, 204)" stroke-width="1px"></line><line x1="50" y1="137.4545454545455" x2="45" y2="137.4545454545455" style="visibility: inherit;" fill="rgb(0, 0, 0)" stroke="rgb(204, 204, 204)" stroke-width="1px"></line><line x1="50" y1="103.09090909090912" x2="45" y2="103.09090909090912" style="visibility: inherit;" fill="rgb(0, 0, 0)" stroke="rgb(204, 204, 204)" stroke-width="1px"></line><line x1="50" y1="68.72727272727275" x2="45" y2="68.72727272727275" style="visibility: inherit;" fill="rgb(0, 0, 0)" stroke="rgb(204, 204, 204)" stroke-width="1px"></line><line x1="50" y1="34.363636363636374" x2="45" y2="34.363636363636374" style="visibility: inherit;" fill="rgb(0, 0, 0)" stroke="rgb(204, 204, 204)" stroke-width="1px"></line><line x1="50" y1="0" x2="45" y2="0" style="visibility: inherit;" fill="rgb(0, 0, 0)" stroke="rgb(204, 204, 204)" stroke-width="1px"></line></g><g transform="translate(40, 0)"><text x="0" y="378" dx="0em" dy="0.3em" style="text-anchor: end; visibility: hidden; font-family: Roboto, sans-serif; font-size: 12px; font-weight: 200;" fill="rgb(50, 49, 63)" stroke="none" stroke-width="1px">-0.1</text><text x="0" y="343.6363636363636" dx="0em" dy="0.3em" style="text-anchor: end; visibility: inherit; font-family: Roboto, sans-serif; font-size: 12px; font-weight: 200;" fill="rgb(50, 49, 63)" stroke="none" stroke-width="1px">0</text><text x="0" y="309.27272727272725" dx="0em" dy="0.3em" style="text-anchor: end; visibility: inherit; font-family: Roboto, sans-serif; font-size: 12px; font-weight: 200;" fill="rgb(50, 49, 63)" stroke="none" stroke-width="1px">0.1</text><text x="0" y="274.90909090909093" dx="0em" dy="0.3em" style="text-anchor: end; visibility: inherit; font-family: Roboto, sans-serif; font-size: 12px; font-weight: 200;" fill="rgb(50, 49, 63)" stroke="none" stroke-width="1px">0.2</text><text x="0" y="240.54545454545453" dx="0em" dy="0.3em" style="text-anchor: end; visibility: inherit; font-family: Roboto, sans-serif; font-size: 12px; font-weight: 200;" fill="rgb(50, 49, 63)" stroke="none" stroke-width="1px">0.3</text><text x="0" y="206.18181818181816" dx="0em" dy="0.3em" style="text-anchor: end; visibility: inherit; font-family: Roboto, sans-serif; font-size: 12px; font-weight: 200;" fill="rgb(50, 49, 63)" stroke="none" stroke-width="1px">0.4</text><text x="0" y="171.81818181818184" dx="0em" dy="0.3em" style="text-anchor: end; visibility: inherit; font-family: Roboto, sans-serif; font-size: 12px; font-weight: 200;" fill="rgb(50, 49, 63)" stroke="none" stroke-width="1px">0.5</text><text x="0" y="137.4545454545455" dx="0em" dy="0.3em" style="text-anchor: end; visibility: inherit; font-family: Roboto, sans-serif; font-size: 12px; font-weight: 200;" fill="rgb(50, 49, 63)" stroke="none" stroke-width="1px">0.6</text><text x="0" y="103.09090909090912" dx="0em" dy="0.3em" style="text-anchor: end; visibility: inherit; font-family: Roboto, sans-serif; font-size: 12px; font-weight: 200;" fill="rgb(50, 49, 63)" stroke="none" stroke-width="1px">0.7</text><text x="0" y="68.72727272727275" dx="0em" dy="0.3em" style="text-anchor: end; visibility: inherit; font-family: Roboto, sans-serif; font-size: 12px; font-weight: 200;" fill="rgb(50, 49, 63)" stroke="none" stroke-width="1px">0.8</text><text x="0" y="34.363636363636374" dx="0em" dy="0.3em" style="text-anchor: end; visibility: inherit; font-family: Roboto, sans-serif; font-size: 12px; font-weight: 200;" fill="rgb(50, 49, 63)" stroke="none" stroke-width="1px">0.9</text><text x="0" y="0" dx="0em" dy="0.3em" style="text-anchor: end; visibility: hidden; font-family: Roboto, sans-serif; font-size: 12px; font-weight: 200;" fill="rgb(50, 49, 63)" stroke="none" stroke-width="1px">1</text></g><line x1="50" y1="0" x2="50" y2="378" fill="rgb(0, 0, 0)" stroke="rgb(204, 204, 204)" stroke-width="1px"></line></g></g><g transform="translate(50, 0)" clip-path="url(#clip_0)"><clipPath id="clip_0"><rect width="1025" height="378"></rect></clipPath><g><g><g><line x1="0" y1="0" x2="0" y2="378" fill="rgb(0, 0, 0)" stroke="rgb(60, 60, 60)" stroke-width="1px" opacity="0.25"></line><line x1="85.41666666666666" y1="0" x2="85.41666666666666" y2="378" fill="rgb(0, 0, 0)" stroke="rgb(60, 60, 60)" stroke-width="1px" opacity="0.25"></line><line x1="170.83333333333331" y1="0" x2="170.83333333333331" y2="378" fill="rgb(0, 0, 0)" stroke="rgb(60, 60, 60)" stroke-width="1px" opacity="0.25"></line><line x1="256.25" y1="0" x2="256.25" y2="378" fill="rgb(0, 0, 0)" stroke="rgb(60, 60, 60)" stroke-width="1px" opacity="0.25"></line><line x1="341.66666666666663" y1="0" x2="341.66666666666663" y2="378" fill="rgb(0, 0, 0)" stroke="rgb(60, 60, 60)" stroke-width="1px" opacity="0.25"></line><line x1="427.08333333333337" y1="0" x2="427.08333333333337" y2="378" fill="rgb(0, 0, 0)" stroke="rgb(60, 60, 60)" stroke-width="1px" opacity="0.25"></line><line x1="512.5" y1="0" x2="512.5" y2="378" fill="rgb(0, 0, 0)" stroke="rgb(60, 60, 60)" stroke-width="1px" opacity="0.25"></line><line x1="597.9166666666667" y1="0" x2="597.9166666666667" y2="378" fill="rgb(0, 0, 0)" stroke="rgb(60, 60, 60)" stroke-width="1px" opacity="0.25"></line><line x1="683.3333333333333" y1="0" x2="683.3333333333333" y2="378" fill="rgb(0, 0, 0)" stroke="rgb(60, 60, 60)" stroke-width="1px" opacity="0.25"></line><line x1="768.75" y1="0" x2="768.75" y2="378" fill="rgb(0, 0, 0)" stroke="rgb(60, 60, 60)" stroke-width="1px" opacity="0.25"></line><line x1="854.1666666666667" y1="0" x2="854.1666666666667" y2="378" fill="rgb(0, 0, 0)" stroke="rgb(60, 60, 60)" stroke-width="1px" opacity="0.25"></line><line x1="939.5833333333333" y1="0" x2="939.5833333333333" y2="378" fill="rgb(0, 0, 0)" stroke="rgb(60, 60, 60)" stroke-width="1px" opacity="0.25"></line><line x1="1025" y1="0" x2="1025" y2="378" fill="rgb(0, 0, 0)" stroke="rgb(60, 60, 60)" stroke-width="1px" opacity="0.25"></line></g><g><line x1="0" y1="378" x2="1025" y2="378" fill="rgb(0, 0, 0)" stroke="rgb(60, 60, 60)" stroke-width="1px" opacity="0.25"></line><line x1="0" y1="343.6363636363636" x2="1025" y2="343.6363636363636" fill="rgb(0, 0, 0)" stroke="rgb(60, 60, 60)" stroke-width="1px" opacity="0.25"></line><line x1="0" y1="309.27272727272725" x2="1025" y2="309.27272727272725" fill="rgb(0, 0, 0)" stroke="rgb(60, 60, 60)" stroke-width="1px" opacity="0.25"></line><line x1="0" y1="274.90909090909093" x2="1025" y2="274.90909090909093" fill="rgb(0, 0, 0)" stroke="rgb(60, 60, 60)" stroke-width="1px" opacity="0.25"></line><line x1="0" y1="240.54545454545453" x2="1025" y2="240.54545454545453" fill="rgb(0, 0, 0)" stroke="rgb(60, 60, 60)" stroke-width="1px" opacity="0.25"></line><line x1="0" y1="206.18181818181816" x2="1025" y2="206.18181818181816" fill="rgb(0, 0, 0)" stroke="rgb(60, 60, 60)" stroke-width="1px" opacity="0.25"></line><line x1="0" y1="171.81818181818184" x2="1025" y2="171.81818181818184" fill="rgb(0, 0, 0)" stroke="rgb(60, 60, 60)" stroke-width="1px" opacity="0.25"></line><line x1="0" y1="137.4545454545455" x2="1025" y2="137.4545454545455" fill="rgb(0, 0, 0)" stroke="rgb(60, 60, 60)" stroke-width="1px" opacity="0.25"></line><line x1="0" y1="103.09090909090912" x2="1025" y2="103.09090909090912" fill="rgb(0, 0, 0)" stroke="rgb(60, 60, 60)" stroke-width="1px" opacity="0.25"></line><line x1="0" y1="68.72727272727275" x2="1025" y2="68.72727272727275" fill="rgb(0, 0, 0)" stroke="rgb(60, 60, 60)" stroke-width="1px" opacity="0.25"></line><line x1="0" y1="34.363636363636374" x2="1025" y2="34.363636363636374" fill="rgb(0, 0, 0)" stroke="rgb(60, 60, 60)" stroke-width="1px" opacity="0.25"></line><line x1="0" y1="0" x2="1025" y2="0" fill="rgb(0, 0, 0)" stroke="rgb(60, 60, 60)" stroke-width="1px" opacity="0.25"></line></g></g></g><g><g><line x1="0" y1="343.6363636363636" x2="1025" y2="343.6363636363636" fill="rgb(0, 0, 0)" stroke="rgb(153, 153, 153)" stroke-width="1.5px"></line></g></g><g><g><line x1="85.41666666666666" y1="0" x2="85.41666666666666" y2="378" fill="rgb(0, 0, 0)" stroke="rgb(153, 153, 153)" stroke-width="1.5px"></line></g></g><g><g><g><g><g><path stroke="rgb(204, 51, 17)" stroke-width="2px" d="M85.41666666666666,193.6365569179708L102.5,210.00537049363962L119.58333333333333,221.89130651486386L136.66666666666666,230.77960463967875L153.75,238.14056708165043L170.83333333333331,243.90633927246972L187.91666666666666,248.84721391115406L205,252.90091642562714L222.08333333333334,256.235437175342L239.16666666666666,258.74172993534364L256.25,260.8684182551934L273.3333333333333,262.2684146934283L290.4166666666667,263.4569828585946L307.5,264.12235010446227L324.5833333333333,264.6754693178194L341.66666666666663,265.1868775580251L358.75,265.7079299617425L375.8333333333333,266.3141918977669L392.9166666666667,266.7455586944175L410,266.6270207430591L427.08333333333337,266.2510802190182L444.1666666666667,265.8702303557848L461.25,265.24229879979583L478.3333333333333,265.2268816119049L495.4166666666667,264.9383725066999L512.5,264.2989682471262L529.5833333333334,263.65779777745445L546.6666666666666,262.86230423376884L563.75,261.8247244986878L580.8333333333334,260.6777043655L597.9166666666667,259.4576074036252L615,258.819667661761L632.0833333333334,258.29959239482884L649.1666666666666,257.6779692131018L666.25,257.6407702414397L683.3333333333333,257.3685091604535L700.4166666666666,256.8483668239178L717.5,255.531217908216L734.5833333333334,254.9538832786484L751.6666666666666,254.5692461003821L768.75,253.58010167329502L785.8333333333334,252.55048080900826L802.9166666666666,251.9832177002389L820,251.25487547249935L837.0833333333334,250.30364092494267L854.1666666666667,249.68964152947706L871.25,247.98262374371512L888.3333333333334,247.15526458590583L905.4166666666666,246.77591376231666L922.5,245.49852684409674" style="fill: none;" fill="none"></path></g><g><path stroke="rgb(0, 119, 187)" stroke-width="2px" d="M85.41666666666666,72.8129800883207L102.5,161.68718302114448L119.58333333333333,203.10111961581492L136.66666666666666,228.76118629941726L153.75,246.4473674120561L170.83333333333331,259.8246863556699L187.91666666666666,270.1395868122809L205,278.412010979162L222.08333333333334,284.8467261505299L239.16666666666666,290.45328657211525L256.25,294.81444688493764L273.3333333333333,298.3564012347474L290.4166666666667,301.56977567631486L307.5,304.43847155768555L324.5833333333333,306.3010745224453L341.66666666666663,308.5149257258122L358.75,310.2928255023908L375.8333333333333,311.55401760096294L392.9166666666667,313.25545664265275L410,314.50897828141086L427.08333333333337,315.390624687027L444.1666666666667,316.20362305194044L461.25,317.0722849852901L478.3333333333333,317.5933640773907L495.4166666666667,318.75569287854813L512.5,319.24724546375415L529.5833333333334,319.80141024538574L546.6666666666666,320.4863800539303L563.75,321.0922510486802L580.8333333333334,321.27223545868156L597.9166666666667,321.5356818137596L615,322.1346347227722L632.0833333333334,322.1638866711915L649.1666666666666,322.66598766552727L666.25,322.42034102179105L683.3333333333333,323.00686900065006L700.4166666666666,323.8480767452228L717.5,324.177427638684L734.5833333333334,323.76844187614273L751.6666666666666,323.9947363089241L768.75,324.39926358200074L785.8333333333334,324.1883896769823L802.9166666666666,324.8932561540426L820,324.5454507897708L837.0833333333334,324.5984773859954L854.1666666666667,325.23012842529795L871.25,325.367577665904L888.3333333333334,325.2452859354234L905.4166666666666,325.5015395841545L922.5,326.07098564710327" style="fill: none;" fill="none"></path></g></g></g></g><g opacity="0.2"><g><g><g><path stroke="rgb(204, 51, 17)" stroke-width="2px" d="M85.41666666666666,193.63655691797086L102.5,219.82665863904086L119.58333333333333,233.30180509523916L136.66666666666666,241.23224323446104L153.75,247.7510396458886L170.83333333333331,251.88247789036146L187.91666666666666,255.91274369846693L205,258.8112536072731L222.08333333333334,261.15320758386093L239.16666666666666,262.46328259056264L256.25,264.0391618284312L273.3333333333333,264.36079063198787L290.4166666666667,265.2359542250633L307.5,265.1190974495628L324.5833333333333,265.50449796698314L341.66666666666663,265.9536292336204L358.75,266.48928807540375L375.8333333333333,267.2234308719635L392.9166666666667,267.39254317500377L410,266.44922465085983L427.08333333333337,265.68719005042857L444.1666666666667,265.2989680929618L461.25,264.30041386322546L478.3333333333333,265.20375601269984L495.4166666666667,264.5056108994918L512.5,263.3398645845327L529.5833333333334,262.6960437135263L546.6666666666666,261.66906513951045L563.75,260.2683558518236L580.8333333333334,258.9571747996591L597.9166666666667,257.62746236541057L615,257.8627581758933L632.0833333333334,257.5194795565172L649.1666666666666,256.74553448503667L666.25,257.58497178554535L683.3333333333333,256.9601175459948L700.4166666666666,256.0681533271616L717.5,253.55549454689026L734.5833333333334,254.08788133751264L751.6666666666666,253.9922903342681L768.75,252.09638503464785L785.8333333333334,251.00604951381683L802.9166666666666,251.13232303749433L820,250.16236213120547L837.0833333333334,248.8767891038548L854.1666666666667,248.76864243637434L871.25,245.42209706523204L888.3333333333334,245.9142258492383L905.4166666666666,246.20688752694568L922.5,243.58244646679273" style="fill: none;" fill="none"></path></g><g><path stroke="rgb(0, 119, 187)" stroke-width="2px" d="M85.41666666666666,72.8129800883207L102.5,215.01170478083873L119.58333333333333,242.8584987466986L136.66666666666666,258.93742471933365L153.75,269.5384454727173L170.83333333333331,278.33033428950745L187.91666666666666,284.890059503642L205,290.4732848297466L222.08333333333334,294.33668114922267L239.16666666666666,298.7783753871918L256.25,301.31663195111537L273.3333333333333,303.6500576003031L290.4166666666667,306.3793451135809L307.5,308.73589530587196L324.5833333333333,309.0927895497192L341.66666666666663,311.83414115147156L358.75,312.95892281965774L375.8333333333333,313.4454855322838L392.9166666666667,315.8073560080745L410,316.389146162705L427.08333333333337,316.7130459438671L444.1666666666667,317.4230938472531L461.25,318.37526073509997L478.3333333333333,318.37497654286295L495.4166666666667,320.49917781894857L512.5,319.9845722453161L529.5833333333334,320.6326559998772L546.6666666666666,321.5138337151571L563.75,322.0010569827123L580.8333333333334,321.542211974209L597.9166666666667,321.93085125901484L615,323.0330639671196L632.0833333333334,322.2077645903284L649.1666666666666,323.41913912106645L666.25,322.0518710667437L683.3333333333333,323.8866609538143L700.4166666666666,325.1098883490671L717.5,324.6714539758184L734.5833333333334,323.15496323460883L751.6666666666666,324.3341779573397L768.75,325.0060544908047L785.8333333333334,323.8720788197084L802.9166666666666,325.9505558691242L820,324.0237427435138L837.0833333333334,324.6780172803185L854.1666666666667,326.1776049841534L871.25,325.5737515268001L888.3333333333334,325.06184833970934L905.4166666666666,325.8859200572426L922.5,326.9251547415148" style="fill: none;" fill="none"></path></g></g></g></g></g><g><g opacity="0.28179"><span fill="rgb(0, 0, 0)" stroke="none" stroke-width="1px">Alt + Scroll to Zoom</span></g></g></g><g transform="translate(50, 378)" clip-path="url(#clip_1)"><clipPath id="clip_1"><rect width="1025" height="22"></rect></clipPath><g><g><line x1="0" y1="0" x2="0" y2="5" style="visibility: inherit;" fill="rgb(0, 0, 0)" stroke="rgb(204, 204, 204)" stroke-width="1px"></line><line x1="85.41666666666666" y1="0" x2="85.41666666666666" y2="5" style="visibility: inherit;" fill="rgb(0, 0, 0)" stroke="rgb(204, 204, 204)" stroke-width="1px"></line><line x1="170.83333333333331" y1="0" x2="170.83333333333331" y2="5" style="visibility: inherit;" fill="rgb(0, 0, 0)" stroke="rgb(204, 204, 204)" stroke-width="1px"></line><line x1="256.25" y1="0" x2="256.25" y2="5" style="visibility: inherit;" fill="rgb(0, 0, 0)" stroke="rgb(204, 204, 204)" stroke-width="1px"></line><line x1="341.66666666666663" y1="0" x2="341.66666666666663" y2="5" style="visibility: inherit;" fill="rgb(0, 0, 0)" stroke="rgb(204, 204, 204)" stroke-width="1px"></line><line x1="427.08333333333337" y1="0" x2="427.08333333333337" y2="5" style="visibility: inherit;" fill="rgb(0, 0, 0)" stroke="rgb(204, 204, 204)" stroke-width="1px"></line><line x1="512.5" y1="0" x2="512.5" y2="5" style="visibility: inherit;" fill="rgb(0, 0, 0)" stroke="rgb(204, 204, 204)" stroke-width="1px"></line><line x1="597.9166666666667" y1="0" x2="597.9166666666667" y2="5" style="visibility: inherit;" fill="rgb(0, 0, 0)" stroke="rgb(204, 204, 204)" stroke-width="1px"></line><line x1="683.3333333333333" y1="0" x2="683.3333333333333" y2="5" style="visibility: inherit;" fill="rgb(0, 0, 0)" stroke="rgb(204, 204, 204)" stroke-width="1px"></line><line x1="768.75" y1="0" x2="768.75" y2="5" style="visibility: inherit;" fill="rgb(0, 0, 0)" stroke="rgb(204, 204, 204)" stroke-width="1px"></line><line x1="854.1666666666667" y1="0" x2="854.1666666666667" y2="5" style="visibility: inherit;" fill="rgb(0, 0, 0)" stroke="rgb(204, 204, 204)" stroke-width="1px"></line><line x1="939.5833333333333" y1="0" x2="939.5833333333333" y2="5" style="visibility: inherit;" fill="rgb(0, 0, 0)" stroke="rgb(204, 204, 204)" stroke-width="1px"></line><line x1="1025" y1="0" x2="1025" y2="5" style="visibility: inherit;" fill="rgb(0, 0, 0)" stroke="rgb(204, 204, 204)" stroke-width="1px"></line></g><g transform="translate(0, 8)"><text x="0" y="0" dx="0em" dy="0.95em" style="text-anchor: middle; visibility: hidden; font-family: Roboto, sans-serif; font-size: 12px; font-weight: 200;" fill="rgb(50, 49, 63)" stroke="none" stroke-width="1px">-5</text><text x="85.41666666666666" y="0" dx="0em" dy="0.95em" style="text-anchor: middle; visibility: inherit; font-family: Roboto, sans-serif; font-size: 12px; font-weight: 200;" fill="rgb(50, 49, 63)" stroke="none" stroke-width="1px">0</text><text x="170.83333333333331" y="0" dx="0em" dy="0.95em" style="text-anchor: middle; visibility: inherit; font-family: Roboto, sans-serif; font-size: 12px; font-weight: 200;" fill="rgb(50, 49, 63)" stroke="none" stroke-width="1px">5</text><text x="256.25" y="0" dx="0em" dy="0.95em" style="text-anchor: middle; visibility: inherit; font-family: Roboto, sans-serif; font-size: 12px; font-weight: 200;" fill="rgb(50, 49, 63)" stroke="none" stroke-width="1px">10</text><text x="341.66666666666663" y="0" dx="0em" dy="0.95em" style="text-anchor: middle; visibility: inherit; font-family: Roboto, sans-serif; font-size: 12px; font-weight: 200;" fill="rgb(50, 49, 63)" stroke="none" stroke-width="1px">15</text><text x="427.08333333333337" y="0" dx="0em" dy="0.95em" style="text-anchor: middle; visibility: inherit; font-family: Roboto, sans-serif; font-size: 12px; font-weight: 200;" fill="rgb(50, 49, 63)" stroke="none" stroke-width="1px">20</text><text x="512.5" y="0" dx="0em" dy="0.95em" style="text-anchor: middle; visibility: inherit; font-family: Roboto, sans-serif; font-size: 12px; font-weight: 200;" fill="rgb(50, 49, 63)" stroke="none" stroke-width="1px">25</text><text x="597.9166666666667" y="0" dx="0em" dy="0.95em" style="text-anchor: middle; visibility: inherit; font-family: Roboto, sans-serif; font-size: 12px; font-weight: 200;" fill="rgb(50, 49, 63)" stroke="none" stroke-width="1px">30</text><text x="683.3333333333333" y="0" dx="0em" dy="0.95em" style="text-anchor: middle; visibility: inherit; font-family: Roboto, sans-serif; font-size: 12px; font-weight: 200;" fill="rgb(50, 49, 63)" stroke="none" stroke-width="1px">35</text><text x="768.75" y="0" dx="0em" dy="0.95em" style="text-anchor: middle; visibility: inherit; font-family: Roboto, sans-serif; font-size: 12px; font-weight: 200;" fill="rgb(50, 49, 63)" stroke="none" stroke-width="1px">40</text><text x="854.1666666666667" y="0" dx="0em" dy="0.95em" style="text-anchor: middle; visibility: inherit; font-family: Roboto, sans-serif; font-size: 12px; font-weight: 200;" fill="rgb(50, 49, 63)" stroke="none" stroke-width="1px">45</text><text x="939.5833333333333" y="0" dx="0em" dy="0.95em" style="text-anchor: middle; visibility: inherit; font-family: Roboto, sans-serif; font-size: 12px; font-weight: 200;" fill="rgb(50, 49, 63)" stroke="none" stroke-width="1px">50</text><text x="1025" y="0" dx="0em" dy="0.95em" style="text-anchor: middle; visibility: hidden; font-family: Roboto, sans-serif; font-size: 12px; font-weight: 200;" fill="rgb(50, 49, 63)" stroke="none" stroke-width="1px">55</text></g><line x1="0" y1="0" x2="1025" y2="0" fill="rgb(0, 0, 0)" stroke="rgb(204, 204, 204)" stroke-width="1px"></line></g></g></g></g></svg>